<?xml version="1.0" encoding="utf-8"?>
<!-- Generator: Adobe Illustrator 24.1.0, SVG Export Plug-In . SVG Version: 6.00 Build 0)  -->
<svg version="1.1" id="Capa_2_1_" xmlns="http://www.w3.org/2000/svg" xmlns:xlink="http://www.w3.org/1999/xlink" x="0px" y="0px"
	 viewBox="0 0 259 259" style="enable-background:new 0 0 259 259;" xml:space="preserve">
<style type="text/css">
	.st0{enable-background:new    ;}
	.st1{fill:#FFFFFF;}
</style>
<g class="st0">
	<path class="st1" d="M16.7,223h5.1v22.7h-5.1V223z"/>
	<path class="st1" d="M41.3,245.7c-1.5-2.6-3-5.2-4.7-7.7c-1.7-2.5-3.5-4.9-5.4-7.2v14.9h-5V223h4.2c0.7,0.7,1.5,1.6,2.4,2.7
		c0.9,1,1.8,2.2,2.7,3.4c0.9,1.2,1.8,2.4,2.7,3.7c0.9,1.3,1.7,2.5,2.5,3.7V223h5.1v22.7H41.3z"/>
	<path class="st1" d="M49.9,223H55v22.7h-5.1V223z"/>
	<path class="st1" d="M69.7,246.2c-3.7,0-6.5-1-8.4-3.1c-1.9-2.1-2.9-5-2.9-8.7c0-1.9,0.3-3.6,0.9-5c0.6-1.5,1.4-2.7,2.4-3.7
		c1-1,2.2-1.8,3.7-2.3c1.4-0.5,3-0.8,4.6-0.8c1,0,1.8,0.1,2.6,0.2c0.8,0.1,1.5,0.3,2.1,0.5c0.6,0.2,1.1,0.4,1.5,0.6
		c0.4,0.2,0.7,0.3,0.9,0.5l-1.5,4.1c-0.7-0.4-1.5-0.7-2.4-1c-0.9-0.3-2-0.4-3.2-0.4c-0.8,0-1.6,0.1-2.3,0.4c-0.8,0.3-1.4,0.7-2,1.3
		c-0.6,0.6-1,1.3-1.4,2.2s-0.5,2-0.5,3.3c0,1,0.1,2,0.3,2.9c0.2,0.9,0.6,1.7,1.1,2.3c0.5,0.7,1.2,1.2,2,1.6c0.8,0.4,1.8,0.6,3,0.6
		c0.7,0,1.4,0,2-0.1c0.6-0.1,1.1-0.2,1.6-0.3s0.9-0.3,1.2-0.4c0.3-0.2,0.7-0.3,0.9-0.4l1.4,4.1c-0.7,0.4-1.7,0.8-3,1.2
		C72.9,246,71.4,246.2,69.7,246.2z"/>
	<path class="st1" d="M79.6,223h5.1v22.7h-5.1V223z"/>
	<path class="st1" d="M104.2,245.7c-0.3-0.8-0.5-1.6-0.8-2.4c-0.3-0.8-0.6-1.7-0.9-2.5h-8.9c-0.3,0.8-0.6,1.7-0.9,2.5
		c-0.3,0.8-0.6,1.6-0.8,2.4h-5.3c0.9-2.4,1.7-4.7,2.4-6.8s1.5-4,2.3-5.9s1.5-3.6,2.2-5.2s1.5-3.3,2.2-4.8h4.8
		c0.7,1.6,1.5,3.2,2.2,4.8c0.7,1.6,1.5,3.4,2.2,5.2c0.7,1.8,1.5,3.8,2.3,5.9s1.6,4.3,2.4,6.8H104.2z M98.1,228.2
		c-0.1,0.3-0.3,0.8-0.5,1.3c-0.2,0.6-0.5,1.2-0.7,2s-0.6,1.6-0.9,2.5c-0.3,0.9-0.7,1.8-1.1,2.8h6.5c-0.3-1-0.7-1.9-1-2.8
		c-0.3-0.9-0.6-1.7-0.9-2.5c-0.3-0.7-0.6-1.4-0.8-2C98.4,228.9,98.2,228.5,98.1,228.2z"/>
	<path class="st1" d="M118.3,222.8c3.4,0,6,0.6,7.8,1.8c1.8,1.2,2.7,3.1,2.7,5.6c0,1.6-0.4,2.9-1.1,3.9c-0.7,1-1.8,1.8-3.2,2.3
		c0.5,0.6,0.9,1.2,1.4,1.9c0.5,0.7,1,1.5,1.5,2.3c0.5,0.8,1,1.6,1.4,2.5s0.9,1.7,1.3,2.5h-5.7c-0.4-0.7-0.8-1.5-1.3-2.3
		c-0.4-0.8-0.9-1.5-1.3-2.2c-0.4-0.7-0.9-1.4-1.3-2c-0.4-0.6-0.9-1.2-1.3-1.8h-2.5v8.3h-5.1v-22.4c1.1-0.2,2.3-0.4,3.5-0.5
		C116.3,222.8,117.4,222.8,118.3,222.8z M118.6,227.1c-0.4,0-0.7,0-1,0c-0.3,0-0.6,0-0.8,0.1v6.2h1.4c1.9,0,3.3-0.2,4.1-0.7
		c0.8-0.5,1.2-1.3,1.2-2.5c0-1.1-0.4-1.9-1.3-2.4C121.5,227.3,120.2,227.1,118.6,227.1z"/>
	<path class="st1" d="M149.8,246.2c-3.7,0-6.5-1-8.4-3.1c-1.9-2.1-2.9-5-2.9-8.7c0-1.9,0.3-3.6,0.9-5c0.6-1.5,1.4-2.7,2.4-3.7
		c1-1,2.2-1.8,3.7-2.3c1.4-0.5,3-0.8,4.6-0.8c1,0,1.8,0.1,2.6,0.2c0.8,0.1,1.5,0.3,2.1,0.5c0.6,0.2,1.1,0.4,1.5,0.6
		c0.4,0.2,0.7,0.3,0.9,0.5l-1.5,4.1c-0.7-0.4-1.5-0.7-2.4-1c-0.9-0.3-2-0.4-3.2-0.4c-0.8,0-1.6,0.1-2.3,0.4c-0.8,0.3-1.4,0.7-2,1.3
		c-0.6,0.6-1,1.3-1.4,2.2c-0.3,0.9-0.5,2-0.5,3.3c0,1,0.1,2,0.3,2.9s0.6,1.7,1.1,2.3c0.5,0.7,1.2,1.2,2,1.6c0.8,0.4,1.8,0.6,3,0.6
		c0.7,0,1.4,0,2-0.1c0.6-0.1,1.1-0.2,1.6-0.3c0.5-0.1,0.9-0.3,1.2-0.4c0.3-0.2,0.7-0.3,1-0.4l1.4,4.1c-0.7,0.4-1.7,0.8-3,1.2
		S151.5,246.2,149.8,246.2z"/>
	<path class="st1" d="M168.6,246.2c-1.6,0-3-0.2-4.1-0.7s-2.1-1.1-2.9-1.9c-0.8-0.8-1.3-1.7-1.7-2.8s-0.5-2.3-0.5-3.7V223h5.1v13.7
		c0,0.9,0.1,1.7,0.3,2.3c0.2,0.6,0.5,1.2,0.9,1.6c0.4,0.4,0.8,0.7,1.3,0.9s1.1,0.3,1.7,0.3c1.2,0,2.3-0.4,3-1.1
		c0.8-0.8,1.2-2.1,1.2-3.9V223h5.1v14.1c0,1.3-0.2,2.6-0.6,3.7c-0.4,1.1-0.9,2.1-1.7,2.9c-0.8,0.8-1.7,1.4-2.9,1.9
		S170.2,246.2,168.6,246.2z"/>
	<path class="st1" d="M188.6,222.8c3.4,0,6,0.6,7.8,1.8c1.8,1.2,2.7,3.1,2.7,5.6c0,1.6-0.4,2.9-1.1,3.9c-0.7,1-1.8,1.8-3.2,2.3
		c0.5,0.6,0.9,1.2,1.4,1.9c0.5,0.7,1,1.5,1.5,2.3c0.5,0.8,1,1.6,1.4,2.5c0.5,0.9,0.9,1.7,1.3,2.5h-5.7c-0.4-0.7-0.8-1.5-1.3-2.3
		c-0.4-0.8-0.9-1.5-1.3-2.2c-0.4-0.7-0.9-1.4-1.3-2c-0.4-0.6-0.9-1.2-1.3-1.8H187v8.3h-5.1v-22.4c1.1-0.2,2.3-0.4,3.5-0.5
		C186.6,222.8,187.6,222.8,188.6,222.8z M188.9,227.1c-0.4,0-0.7,0-1,0c-0.3,0-0.6,0-0.8,0.1v6.2h1.4c1.9,0,3.3-0.2,4.1-0.7
		c0.8-0.5,1.2-1.3,1.2-2.5c0-1.1-0.4-1.9-1.3-2.4C191.8,227.3,190.5,227.1,188.9,227.1z"/>
	<path class="st1" d="M209,241.8c0.7,0,1.3-0.1,1.8-0.2c0.5-0.1,0.8-0.3,1.1-0.5c0.3-0.2,0.5-0.5,0.6-0.7c0.1-0.3,0.2-0.6,0.2-0.9
		c0-0.7-0.3-1.4-1-1.9c-0.7-0.5-1.9-1-3.6-1.6c-0.7-0.3-1.5-0.6-2.2-0.9c-0.7-0.3-1.4-0.8-2-1.3c-0.6-0.5-1.1-1.1-1.4-1.9
		s-0.6-1.6-0.6-2.7c0-1,0.2-2,0.6-2.8c0.4-0.8,0.9-1.6,1.7-2.1s1.6-1,2.6-1.4c1-0.3,2.2-0.5,3.5-0.5c1.5,0,2.8,0.2,4,0.5
		c1.1,0.3,2,0.7,2.8,1.1l-1.5,4c-0.6-0.3-1.3-0.6-2.1-0.9c-0.8-0.3-1.7-0.4-2.8-0.4c-1.2,0-2.1,0.2-2.6,0.5
		c-0.5,0.3-0.8,0.9-0.8,1.6c0,0.4,0.1,0.8,0.3,1c0.2,0.3,0.5,0.5,0.8,0.8c0.4,0.2,0.8,0.4,1.2,0.6c0.5,0.2,1,0.4,1.6,0.6
		c1.2,0.4,2.2,0.9,3.1,1.3s1.6,0.9,2.2,1.5c0.6,0.6,1,1.2,1.3,2c0.3,0.8,0.4,1.7,0.4,2.8c0,2.1-0.7,3.8-2.2,4.9
		c-1.5,1.2-3.7,1.8-6.7,1.8c-1,0-1.9-0.1-2.7-0.2s-1.5-0.3-2.1-0.4c-0.6-0.2-1.2-0.4-1.6-0.6c-0.4-0.2-0.8-0.4-1.1-0.6l1.4-4.1
		c0.7,0.4,1.5,0.7,2.5,1C206.4,241.7,207.6,241.8,209,241.8z"/>
	<path class="st1" d="M242.6,234.3c0,1.9-0.3,3.7-0.9,5.1c-0.6,1.5-1.4,2.7-2.4,3.7c-1,1-2.2,1.7-3.6,2.2s-2.9,0.8-4.5,0.8
		c-1.5,0-3-0.3-4.4-0.8c-1.4-0.5-2.6-1.2-3.6-2.2c-1-1-1.8-2.2-2.4-3.7c-0.6-1.5-0.9-3.2-0.9-5.1s0.3-3.7,0.9-5.1
		c0.6-1.5,1.4-2.7,2.5-3.7c1-1,2.2-1.8,3.6-2.3c1.4-0.5,2.8-0.8,4.3-0.8c1.6,0,3,0.3,4.4,0.8c1.4,0.5,2.6,1.3,3.6,2.3
		c1,1,1.8,2.2,2.4,3.7S242.6,232.4,242.6,234.3z M225.2,234.3c0,1.1,0.1,2.1,0.4,3c0.3,0.9,0.7,1.7,1.2,2.3c0.5,0.6,1.1,1.1,1.9,1.5
		c0.7,0.3,1.6,0.5,2.6,0.5c0.9,0,1.8-0.2,2.5-0.5c0.8-0.3,1.4-0.8,1.9-1.5c0.5-0.6,0.9-1.4,1.2-2.3c0.3-0.9,0.4-1.9,0.4-3
		s-0.1-2.1-0.4-3c-0.3-0.9-0.7-1.7-1.2-2.3c-0.5-0.6-1.1-1.1-1.9-1.5c-0.8-0.3-1.6-0.5-2.5-0.5c-1,0-1.8,0.2-2.6,0.5
		c-0.7,0.4-1.4,0.9-1.9,1.5c-0.5,0.6-0.9,1.4-1.2,2.3C225.4,232.3,225.2,233.3,225.2,234.3z"/>
</g>
<path class="st1" d="M177.2,88.7c-2.5-0.8-5.2-1.1-7.8-0.9c-4.2-7.7-13.2-11.2-21.5-8.4c-3.3-5-8.9-7.9-14.9-7.9c-0.3,0-0.6,0-0.9,0
	v-5.2c15.1-9.9,19.4-30.2,9.5-45.3c-9.9-15.1-30.2-19.4-45.3-9.5c-15.1,9.9-19.4,30.2-9.5,45.3c2.5,3.8,5.7,7,9.5,9.5v26.3
	C91,84.3,80,82,71.8,87.3c-7.5,4.9-10.2,14.6-6.3,22.7l34.6,70c1.5,3.1,4,5.7,7,7.5c1.5,1.6,3.5,2.4,5.7,2.4H168
	c4.4,0,7.9-3.5,7.9-7.9v-17.1c0,0,0.7-4.9,1.8-6C187.4,149.8,206.2,100.4,177.2,88.7z M88.9,38.8c0-14,11.3-25.4,25.3-25.4
	c14,0,25.4,11.3,25.4,25.3c0,6.7-2.7,13.2-7.5,18V35.9c0,0-0.8-15.5-17.9-15.5c-17.1,0-17.9,15.5-17.9,15.5v20.9
	C91.6,52,88.9,45.5,88.9,38.8z M172.2,153.1c-0.9,0.8-3.2,3-4.3,10.7c-0.1,0.4-0.1,0.7-0.1,1.1v17h-55.1c-0.5-0.5-1.1-1-1.7-1.4
	c-1.6-1-3-2.4-3.8-4.1l-34.6-69.9c-2.4-4.8-0.5-10.7,4.4-13.1c4.5-2.2,9.9-0.7,12.6,3.5c2.4,3.7,7.3,4.8,11.1,2.4
	c2.3-1.5,3.7-4,3.7-6.7v-5V70v-7.8v-6.3v-8c0-0.2-0.1-9.2,9.9-9.2c10.5,0,9.9,9,9.9,9.2v8v6.3V70v1.4c0,4.4,3.6,8,8,8
	c0.1,0,0.3,0,0.4,0h0.5c3.3,0,6.4,1.6,8.2,4.4c2,3,5.8,4.3,9.2,3.1c4.6-1.5,9.6,0.4,11.9,4.6c1.5,2.7,4.4,4.4,7.5,4.2
	c1.6-0.1,3.1,0.1,4.6,0.5c5.3,2.3,8.4,6.4,9.6,12.9C187.3,126,176.6,148.9,172.2,153.1z"/>
</svg>
